<svg width="32" height="32" viewBox="0 0 32 32" fill="none" xmlns="http://www.w3.org/2000/svg">
<path fill-rule="evenodd" clip-rule="evenodd" d="M13.9917 27.1882C13.6281 28.1925 12.5228 28.7093 11.5193 28.3381C10.5158 27.9742 9.99947 26.8679 10.3703 25.8636C10.6103 25.194 11.9192 24.1169 12.7628 23.4691C13.1045 23.2071 13.6063 23.3891 13.7008 23.8112C13.9335 24.8519 14.2389 26.5186 13.9917 27.1882Z" fill="#66AFEB"/>
<path fill-rule="evenodd" clip-rule="evenodd" d="M20.3805 27.1882C20.0169 28.1925 18.9116 28.7093 17.9081 28.3381C16.9046 27.9742 16.3883 26.8679 16.7591 25.8636C16.9991 25.194 18.308 24.1169 19.1515 23.4691C19.4933 23.2071 19.9951 23.3891 20.0896 23.8112C20.3223 24.8519 20.6277 26.5186 20.3805 27.1882Z" fill="#66AFEB"/>
<path fill-rule="evenodd" clip-rule="evenodd" d="M23.9473 8.33998C23.9461 8.33998 23.9449 8.33929 23.9442 8.33818C22.8969 6.52325 23.2121 4.30281 24.5586 2.84031C24.6291 2.76571 24.5877 2.64137 24.4882 2.62894C23.0708 2.45073 21.5788 2.79057 20.3023 3.71893C18.114 5.31454 17.31 8.29025 18.4 10.7728C19.8298 14.0262 23.709 15.2363 26.6972 13.5123C27.8452 12.8491 28.6824 11.8586 29.1631 10.723C29.2046 10.6277 29.1175 10.5324 29.0181 10.5573C27.075 10.9964 24.9952 10.1558 23.9504 8.34179C23.9498 8.34068 23.9486 8.33998 23.9473 8.33998V8.33998Z" fill="url(#paint0_linear_285_28474)"/>
<path fill-rule="evenodd" clip-rule="evenodd" d="M21.9107 10.541C21.5705 10.541 21.2369 10.5745 20.9167 10.6414C20.2096 7.84496 17.6947 5.77777 14.6929 5.77777C11.1441 5.77777 8.26898 8.66113 8.26898 12.2202C8.26898 12.6751 8.31567 13.1233 8.40906 13.5582C8.36237 13.5582 8.31567 13.5515 8.26898 13.5515C6.1877 13.5515 4.5 15.244 4.5 17.3313C4.5 19.4186 6.0743 20.9907 8.06218 21.0977V21.1111H21.5504V21.091C21.6705 21.0977 21.7906 21.1111 21.9107 21.1111C24.8191 21.1111 27.1806 18.7429 27.1806 15.8261C27.1806 12.9092 24.8191 10.541 21.9107 10.541Z" fill="url(#paint1_linear_285_28474)"/>
<defs>
<linearGradient id="paint0_linear_285_28474" x1="17.9917" y1="2.58331" x2="17.9917" y2="14.1401" gradientUnits="userSpaceOnUse">
<stop stop-color="#FFC227"/>
<stop offset="1" stop-color="#FFB300"/>
</linearGradient>
<linearGradient id="paint1_linear_285_28474" x1="4.5" y1="5.77777" x2="4.5" y2="21.1111" gradientUnits="userSpaceOnUse">
<stop stop-color="#9FC7FF"/>
<stop offset="1" stop-color="#9BC1F5"/>
</linearGradient>
</defs>
</svg>
